<svg width="385" height="431" viewBox="0 0 385 431" fill="none" xmlns="http://www.w3.org/2000/svg">
<ellipse cx="192.5" cy="215.5" rx="192.5" ry="215.5" fill="url(#paint0_radial_247_7)"/>
<path fill-rule="evenodd" clip-rule="evenodd" d="M240.41 86.3962C240.41 86.3962 240.41 86.3963 240.541 86.4697C240.612 86.6016 240.612 86.6016 240.612 86.6016L240.619 86.5976L240.642 86.5855L240.73 86.5382C240.808 86.4967 240.923 86.436 241.071 86.3588C241.367 86.2044 241.793 85.9845 242.318 85.7225C243.369 85.1985 244.811 84.5067 246.38 83.8349C247.949 83.1628 249.642 82.5121 251.195 82.0693C252.753 81.6248 254.149 81.3961 255.132 81.5499L255.179 81.2535C254.126 81.089 252.676 81.3347 251.113 81.7808C249.543 82.2285 247.837 82.8846 246.262 83.5591C244.686 84.2339 243.238 84.9284 242.184 85.4541C241.658 85.717 241.229 85.9378 240.932 86.0929C240.925 86.0964 240.919 86.0999 240.912 86.1034C240.957 86.0199 241.008 85.9253 241.063 85.8204C241.308 85.3614 241.649 84.7059 242.037 83.9196C242.814 82.3475 243.78 80.2499 244.536 78.1525C245.289 76.0603 245.841 73.9487 245.772 72.356C245.738 71.5586 245.548 70.871 245.129 70.3832C244.705 69.8901 244.068 69.6243 243.192 69.6328L243.195 69.9328C244.005 69.9249 244.548 70.1683 244.901 70.5787C245.258 70.9946 245.44 71.6049 245.473 72.3689C245.538 73.8989 245.005 75.9631 244.253 78.0508C243.503 80.1333 242.542 82.2197 241.768 83.7867C241.382 84.5699 241.042 85.2227 240.799 85.6795C240.677 85.9079 240.58 86.0873 240.513 86.2096C240.479 86.2707 240.454 86.3175 240.436 86.3489L240.416 86.3845L240.41 86.3962ZM240.541 86.4697L240.612 86.6016L240.156 86.8481L240.41 86.3962L240.541 86.4697Z" fill="white"/>
<path fill-rule="evenodd" clip-rule="evenodd" d="M278.803 50.1122C265.92 57.0561 254.422 66.8131 247.471 78.0643L247.726 78.2219C254.642 67.0267 266.095 57.3023 278.946 50.3763C291.796 43.4504 306.03 39.3303 318.5 39.3303V39.0303C305.97 39.0303 291.687 43.1684 278.803 50.1122Z" fill="white"/>
<ellipse cx="205" cy="215.462" rx="129" ry="129.5" fill="url(#paint1_radial_247_7)"/>
<defs>
<radialGradient id="paint0_radial_247_7" cx="0" cy="0" r="1" gradientUnits="userSpaceOnUse" gradientTransform="translate(192.5 215.5) rotate(90) scale(215.5 192.5)">
<stop stop-color="#763CAC"/>
<stop offset="1" stop-color="#320F85" stop-opacity="0"/>
</radialGradient>
<radialGradient id="paint1_radial_247_7" cx="0" cy="0" r="1" gradientUnits="userSpaceOnUse" gradientTransform="translate(205 215.462) rotate(90) scale(129.5 129)">
<stop offset="0.177083" stop-color="white"/>
<stop offset="1" stop-color="#434343" stop-opacity="0"/>
</radialGradient>
</defs>
</svg>
