<svg width="136" height="45" viewBox="0 0 136 45" fill="none" xmlns="http://www.w3.org/2000/svg">
<path d="M0 2H57.5" stroke="white" stroke-width="4"/>
<path d="M28.5493 15.2539L28.5005 12.6782L42.5996 12.373L42.5508 14.7046L36.8501 14.9243L37.021 30.3296L34.3232 30.3784V15.022L28.5493 15.2539ZM56.4785 31.1719L54.0859 30.769L54.2568 29.0479C53.264 29.6826 52.2874 30.1424 51.3271 30.4272C50.375 30.7121 49.4839 30.8545 48.6538 30.8545C48.0679 30.8545 47.4982 30.7772 46.9448 30.6226C46.3996 30.4761 45.9194 30.2441 45.5044 29.9268C45.0812 29.6175 44.7394 29.2228 44.479 28.7427C44.2267 28.2544 44.1006 27.6807 44.1006 27.0215C44.1006 26.3623 44.1982 25.7723 44.3936 25.2515C44.5889 24.7306 44.8574 24.2708 45.1992 23.8721C45.541 23.4733 45.9438 23.1315 46.4077 22.8467C46.8716 22.5618 47.3721 22.3299 47.9092 22.1509C48.4382 21.9718 48.9956 21.8416 49.5815 21.7603C50.1675 21.6707 50.7493 21.626 51.3271 21.626C51.8643 21.626 52.3647 21.6463 52.8286 21.687C53.2925 21.7277 53.7035 21.7806 54.0615 21.8457C53.915 21.2679 53.7157 20.7267 53.4634 20.2222C53.2192 19.7176 52.8937 19.3107 52.4868 19.0015C52.0881 18.6841 51.5713 18.5254 50.9365 18.5254C50.6191 18.5254 50.257 18.5742 49.8501 18.6719C49.4432 18.7614 48.9956 18.9282 48.5073 19.1724C48.019 19.4165 47.486 19.7542 46.9082 20.1855C46.3304 20.6087 45.7119 21.154 45.0527 21.8213L43.5757 20.0269C44.3569 19.2944 45.1056 18.6963 45.8218 18.2324C46.5379 17.7686 47.2134 17.4023 47.8481 17.1338C48.4748 16.8734 49.0566 16.6943 49.5938 16.5967C50.139 16.499 50.6273 16.4502 51.0586 16.4502C51.8154 16.4502 52.4827 16.5763 53.0605 16.8286C53.6465 17.0809 54.1632 17.4308 54.6108 17.8784C55.0584 18.3179 55.4328 18.8387 55.7339 19.4409C56.0269 20.0187 56.2751 20.6616 56.4785 21.3696C56.6738 22.0614 56.8122 22.7775 56.8936 23.5181C56.9831 24.2586 57.0278 24.9951 57.0278 25.7275C57.0278 26.5088 56.9831 27.347 56.8936 28.2422C56.804 29.1374 56.6657 30.1139 56.4785 31.1719ZM54.4277 26.3257C54.444 25.9188 54.4562 25.516 54.4644 25.1172C54.4725 24.7184 54.4521 24.3034 54.4033 23.8721C54.0046 23.75 53.5854 23.6523 53.146 23.5791C52.7065 23.5059 52.2671 23.4692 51.8276 23.4692C51.0952 23.4692 50.3831 23.5547 49.6914 23.7256C49.0078 23.8965 48.4178 24.1447 47.9214 24.4702C47.425 24.7957 47.0506 25.1945 46.7983 25.6665C46.5542 26.1385 46.5054 26.6756 46.6519 27.2778C46.7658 27.7661 46.9855 28.1079 47.311 28.3032C47.6447 28.4985 48.0435 28.5962 48.5073 28.5962C49.1095 28.5962 49.785 28.4701 50.5337 28.2178C51.2824 27.9574 52.0026 27.6481 52.6943 27.29C53.3942 26.932 53.972 26.6105 54.4277 26.3257ZM63.6558 30.5737L61.0312 30.9033L60.7871 24.0552C60.7708 23.5913 60.7546 23.0949 60.7383 22.5659C60.722 22.0288 60.7057 21.5243 60.6895 21.0522C60.6732 20.5721 60.661 20.1937 60.6528 19.917C60.6203 18.7695 60.5959 17.9069 60.5796 17.3291L63.3628 17.2803L63.4116 20.7959C63.6802 20.332 63.9854 19.8966 64.3271 19.4897C64.6689 19.0747 65.0392 18.7085 65.438 18.3911C65.8368 18.0737 66.2599 17.8174 66.7075 17.6221C67.1632 17.4268 67.6393 17.3128 68.1357 17.2803C68.7624 17.2396 69.3035 17.2925 69.7593 17.439C70.215 17.5854 70.6056 17.7889 70.9312 18.0493C71.2567 18.3016 71.5252 18.6068 71.7368 18.9648C71.9565 19.3311 72.1234 19.6973 72.2373 20.0635C72.3594 20.4378 72.4448 20.8162 72.4937 21.1987C72.5506 21.5731 72.5872 21.9149 72.6035 22.2241C72.6523 23.6239 72.6646 25.0317 72.6401 26.4478C72.6157 27.8638 72.5872 29.3327 72.5547 30.8545L70.0522 30.769C70.1174 29.4588 70.1743 28.1486 70.2231 26.8384C70.2801 25.5282 70.276 24.2057 70.2109 22.8711C70.2109 22.5863 70.1784 22.2607 70.1133 21.8945C70.0482 21.5202 69.9302 21.1499 69.7593 20.7837C69.6372 20.5314 69.4785 20.3076 69.2832 20.1123C69.0879 19.9251 68.8478 19.7827 68.563 19.6851C68.2863 19.5874 67.9608 19.5671 67.5864 19.624C66.9435 19.7217 66.2925 20.1896 65.6333 21.0278C64.9823 21.8416 64.2661 23.0745 63.4849 24.7266L63.5703 27.8516C63.5785 28.2422 63.5866 28.584 63.5947 28.877C63.6029 29.1699 63.611 29.4181 63.6191 29.6216C63.6354 30.0936 63.6476 30.411 63.6558 30.5737ZM79.4146 17.9272L79.5122 12.5806L81.9414 12.4219L81.856 17.8784L86.5923 17.7197L86.4092 20.0024L81.8315 20.1245L81.7339 30.769L79.1582 30.8301L79.3657 20.1978L75.1421 20.2954L75.1909 18.0493L79.4146 17.9272ZM100.898 31.1719L98.5059 30.769L98.6768 29.0479C97.6839 29.6826 96.7074 30.1424 95.7471 30.4272C94.7949 30.7121 93.9038 30.8545 93.0737 30.8545C92.4878 30.8545 91.9181 30.7772 91.3647 30.6226C90.8195 30.4761 90.3394 30.2441 89.9243 29.9268C89.5011 29.6175 89.1593 29.2228 88.8989 28.7427C88.6466 28.2544 88.5205 27.6807 88.5205 27.0215C88.5205 26.3623 88.6182 25.7723 88.8135 25.2515C89.0088 24.7306 89.2773 24.2708 89.6191 23.8721C89.9609 23.4733 90.3638 23.1315 90.8276 22.8467C91.2915 22.5618 91.792 22.3299 92.3291 22.1509C92.8581 21.9718 93.4155 21.8416 94.0015 21.7603C94.5874 21.6707 95.1693 21.626 95.7471 21.626C96.2842 21.626 96.7847 21.6463 97.2485 21.687C97.7124 21.7277 98.1234 21.7806 98.4814 21.8457C98.335 21.2679 98.1356 20.7267 97.8833 20.2222C97.6392 19.7176 97.3136 19.3107 96.9067 19.0015C96.508 18.6841 95.9912 18.5254 95.3564 18.5254C95.0391 18.5254 94.6769 18.5742 94.27 18.6719C93.8631 18.7614 93.4155 18.9282 92.9272 19.1724C92.439 19.4165 91.9059 19.7542 91.3281 20.1855C90.7503 20.6087 90.1318 21.154 89.4727 21.8213L87.9956 20.0269C88.7769 19.2944 89.5256 18.6963 90.2417 18.2324C90.9578 17.7686 91.6333 17.4023 92.2681 17.1338C92.8947 16.8734 93.4766 16.6943 94.0137 16.5967C94.5589 16.499 95.0472 16.4502 95.4785 16.4502C96.2354 16.4502 96.9027 16.5763 97.4805 16.8286C98.0664 17.0809 98.5832 17.4308 99.0308 17.8784C99.4784 18.3179 99.8527 18.8387 100.154 19.4409C100.447 20.0187 100.695 20.6616 100.898 21.3696C101.094 22.0614 101.232 22.7775 101.313 23.5181C101.403 24.2586 101.448 24.9951 101.448 25.7275C101.448 26.5088 101.403 27.347 101.313 28.2422C101.224 29.1374 101.086 30.1139 100.898 31.1719ZM98.8477 26.3257C98.8639 25.9188 98.8761 25.516 98.8843 25.1172C98.8924 24.7184 98.8721 24.3034 98.8232 23.8721C98.4245 23.75 98.0054 23.6523 97.5659 23.5791C97.1265 23.5059 96.687 23.4692 96.2476 23.4692C95.5151 23.4692 94.8031 23.5547 94.1113 23.7256C93.4277 23.8965 92.8377 24.1447 92.3413 24.4702C91.8449 24.7957 91.4705 25.1945 91.2183 25.6665C90.9741 26.1385 90.9253 26.6756 91.0718 27.2778C91.1857 27.7661 91.4054 28.1079 91.731 28.3032C92.0646 28.4985 92.4634 28.5962 92.9272 28.5962C93.5295 28.5962 94.2049 28.4701 94.9536 28.2178C95.7023 27.9574 96.4225 27.6481 97.1143 27.29C97.8141 26.932 98.3919 26.6105 98.8477 26.3257ZM116.975 28.0469L118.623 17.5732L121.333 17.6709L118.903 30.4272L115.278 30.5249L113.129 21.5527L110.175 30.0977L106.525 30.3784L104.157 17.7197L106.672 17.5244L108.527 27.7783L112.153 17.5244L114.497 17.6709L116.975 28.0469ZM127.68 13.728C127.68 14.2 127.505 14.6069 127.155 14.9487C126.813 15.2824 126.402 15.4492 125.922 15.4492C125.45 15.4492 125.043 15.2824 124.701 14.9487C124.368 14.6069 124.201 14.2 124.201 13.728C124.201 13.2479 124.368 12.8369 124.701 12.4951C125.043 12.1452 125.45 11.9702 125.922 11.9702C126.402 11.9702 126.813 12.1452 127.155 12.4951C127.505 12.8369 127.68 13.2479 127.68 13.728ZM124.579 18.1226L127.106 18.0249L126.984 23.8843C126.943 25.4956 126.919 26.7611 126.911 27.6807C126.886 28.8037 126.874 29.6867 126.874 30.3296H124.372C124.38 29.8901 124.388 29.41 124.396 28.8892C124.412 28.3602 124.424 27.7946 124.433 27.1924C124.449 26.1426 124.473 24.869 124.506 23.3716L124.579 18.1226ZM134.43 13.728C134.43 14.2 134.255 14.6069 133.905 14.9487C133.563 15.2824 133.152 15.4492 132.672 15.4492C132.2 15.4492 131.793 15.2824 131.451 14.9487C131.118 14.6069 130.951 14.2 130.951 13.728C130.951 13.2479 131.118 12.8369 131.451 12.4951C131.793 12.1452 132.2 11.9702 132.672 11.9702C133.152 11.9702 133.563 12.1452 133.905 12.4951C134.255 12.8369 134.43 13.2479 134.43 13.728ZM131.329 18.1226L133.856 18.0249L133.734 23.8843C133.693 25.4956 133.669 26.7611 133.661 27.6807C133.636 28.8037 133.624 29.6867 133.624 30.3296H131.122C131.13 29.8901 131.138 29.41 131.146 28.8892C131.162 28.3602 131.174 27.7946 131.183 27.1924C131.199 26.1426 131.223 24.869 131.256 23.3716L131.329 18.1226Z" fill="white"/>
<path d="M0 40.5518H56.5" stroke="white" stroke-width="4"/>
<path d="M22.05 2L7.20001 20.8276L22.05 41" stroke="white" stroke-width="4"/>
</svg>
